<?xml version="1.0" encoding="utf-8"?>
<!-- Generator: Adobe Illustrator 19.0.0, SVG Export Plug-In . SVG Version: 6.00 Build 0)  -->
<svg version="1.1" id="图层_1" xmlns="http://www.w3.org/2000/svg" xmlns:xlink="http://www.w3.org/1999/xlink" x="0px" y="0px"
	 viewBox="-83 165 32 32" style="enable-background:new -83 165 32 32;" xml:space="preserve">
<style type="text/css">
	.st0{fill:#796C5C;}
</style>
<path class="st0" d="M-77,168v1v24v1h1h10.8c1.5,1.8,3.7,3,6.2,3c4.4,0,8-3.6,8-8c0-3.7-2.6-6.8-6-7.7V175v-0.4l-0.3-0.3l-6-6
	l-0.3-0.3H-64h-12H-77z M-75,170h10v5v1h1h5v5c-4.4,0-8,3.6-8,8c0,1.1,0.2,2.1,0.6,3H-75V170z M-63,171.4l2.6,2.6H-63V171.4z
	 M-59,183c3.3,0,6,2.7,6,6s-2.7,6-6,6s-6-2.7-6-6S-62.3,183-59,183z M-60,185v3h-3v2h3v3h2v-3h3v-2h-3v-3H-60z"/>
</svg>
