<?xml version="1.0" encoding="utf-8"?>
<!-- Generator: Adobe Illustrator 19.0.0, SVG Export Plug-In . SVG Version: 6.00 Build 0)  -->
<svg version="1.1" id="图层_1" xmlns:sketch="http://www.bohemiancoding.com/sketch/ns"
	 xmlns="http://www.w3.org/2000/svg" xmlns:xlink="http://www.w3.org/1999/xlink" x="0px" y="0px" viewBox="-84 161.2 35.2 34.8"
	 style="enable-background:new -84 161.2 35.2 34.8;" xml:space="preserve">
<style type="text/css">
	.st0{display:none;fill:#E45D3C;}
	.st1{fill:#796C5C;}
</style>
<title>bell</title>
<desc>Created with Sketch Beta.</desc>
<circle class="st0" cx="-54.6" cy="170.2" r="4.5"/>
<g id="Page-1" sketch:type="MSPage">
	<g id="Icon-Set" transform="translate(-152.000000, -255.000000)" sketch:type="MSLayerGroup">
		<path id="comment-2" sketch:type="MSShapeGroup" class="st1" d="M83.2,445.4c-1.1,0-2.2-0.1-3.2-0.4l-4.5,2.7l0.1-4.5
			c-3.5-2.1-5.7-5.5-5.7-9.4c0-6.4,6-11.5,13.5-11.5s13.5,5.2,13.5,11.5C96.6,440.2,90.6,445.4,83.2,445.4L83.2,445.4z M83.2,420.4
			c-8.5,0-15.4,6-15.4,13.5c0,4.2,2.3,8,5.8,10.5v6.8l6.7-4.1c0.9,0.2,1.9,0.2,2.9,0.2c8.5,0,15.4-6,15.4-13.5
			C98.6,426.4,91.7,420.4,83.2,420.4L83.2,420.4z M89.9,431H76.4c-0.5,0-1,0.4-1,1c0,0.5,0.4,1,1,1h13.5c0.5,0,1-0.4,1-1
			C90.9,431.4,90.4,431,89.9,431L89.9,431z M88,436.8h-9.6c-0.5,0-1,0.4-1,1c0,0.5,0.4,1,1,1H88c0.5,0,1-0.4,1-1
			C88.9,437.2,88.5,436.8,88,436.8L88,436.8z"/>
	</g>
</g>
</svg>
