<?xml version="1.0" encoding="utf-8"?>
<!-- Generator: Adobe Illustrator 19.0.0, SVG Export Plug-In . SVG Version: 6.00 Build 0)  -->
<svg version="1.1" id="图层_1" xmlns:sketch="http://www.bohemiancoding.com/sketch/ns"
	 xmlns="http://www.w3.org/2000/svg" xmlns:xlink="http://www.w3.org/1999/xlink" x="0px" y="0px" viewBox="-84 161.2 35.2 34.8"
	 style="enable-background:new -84 161.2 35.2 34.8;" xml:space="preserve">
<style type="text/css">
	.st0{fill:#E45D3C;}
	.st1{fill:#796C5C;}
</style>
<title>bell</title>
<desc>Created with Sketch Beta.</desc>
<circle class="st0" cx="-54.6" cy="170.2" r="4.5"/>
<path class="st1" d="M-55.4,178.8c-1-2.5-3-3.8-5.9-3.8c0,0-1.9,0-3.4,0c0.6-1.3,1.2-3.2,1.2-5.5c0-0.6,0-1.3-0.2-1.9
	c-0.4-2.7-2.3-4.1-4.8-3.8c-1,0.1-1.4,1.1-2.2,3.4c-0.7,1.9-1.7,4.6-3.1,6.8c-1,1.6-2.9,2.8-4.4,3.6v-0.2l-4.9,0v16.8l4.9,0v-0.9
	c1.8-0.1,2.8,0,3,0l2,1.2l1.5,0.9c1.5,0.8,7.9,0.9,10.6,0.5c3.5-0.5,4.4-3.4,4.4-3.5C-56.3,191.3-53.8,182.6-55.4,178.8z
	 M-58.7,191.6c0,0.1-0.5,1.7-2.6,2c-3,0.4-8.5,0.2-9.3-0.2c0,0-1.3-0.8-1.3-0.8l-2.5-1.4c-0.6-0.2-1.9-0.2-3.7-0.1v-11.1
	c1.8-0.7,4.6-2.3,6.2-4.8c1.5-2.4,2.5-5.2,3.3-7.2c0,0,0.7-1.6,0.8-2c1.1,0,1.7,0.6,2,2c0.1,0.5,0.1,1,0.1,1.5c0,3.3-1.7,6-1.7,6
	l-1.1,1.7l7.3,0c1.9,0,3.1,0.8,3.8,2.5C-56.4,182.3-58,189.2-58.7,191.6z"/>
</svg>
