<?xml version="1.0" encoding="utf-8"?>
<!-- Generator: Adobe Illustrator 19.0.0, SVG Export Plug-In . SVG Version: 6.00 Build 0)  -->
<svg version="1.1" id="图层_1" xmlns:sketch="http://www.bohemiancoding.com/sketch/ns"
	 xmlns="http://www.w3.org/2000/svg" xmlns:xlink="http://www.w3.org/1999/xlink" x="0px" y="0px" viewBox="-81 163.2 35.2 34.8"
	 style="enable-background:new -81 163.2 35.2 34.8;" xml:space="preserve">
<style type="text/css">
	.st0{fill:#E45D3C;}
	.st1{fill:none;}
	.st2{fill:#796C5C;}
</style>
<title>bell</title>
<desc>Created with Sketch Beta.</desc>
<circle class="st0" cx="-50.9" cy="171.4" r="4.5"/>
<g>
	<path class="st1" d="M-63.4,195.8c1.4,0,2.6-0.9,3-2.1h-6C-66,194.9-64.8,195.8-63.4,195.8z"/>
	<path class="st1" d="M-56.8,171.4c0-0.1,0-0.1,0-0.2c-1.6-1.9-4-3.2-6.7-3.2c-4.7,0-8.6,3.8-8.6,8.6v8.6l-3.2,6.4h23.5l-3.2-6.4
		v-8.6c0-0.3,0-0.6,0-0.9C-56.1,174.6-56.8,173.1-56.8,171.4z"/>
	<path class="st2" d="M-54.9,175.7c0,0.3,0,0.6,0,0.9v8.6l3.2,6.4h-23.5l3.2-6.4v-8.6c0-4.7,3.8-8.6,8.6-8.6c2.7,0,5.1,1.2,6.7,3.2
		c0-0.9,0.2-1.7,0.6-2.4c-1.9-1.8-4.5-2.9-7.3-2.9c-5.9,0-10.7,4.8-10.7,10.7v8.6l-4.3,8.6h9.7c0.5,2.4,2.7,4.3,5.2,4.3
		c2.6,0,4.7-1.8,5.2-4.3h9.7l-4.3-8.6V177C-53.6,176.7-54.3,176.2-54.9,175.7z M-63.4,195.8c-1.4,0-2.6-0.9-3-2.1h6
		C-60.9,194.9-62,195.8-63.4,195.8z"/>
</g>
</svg>
