<?xml version="1.0" encoding="utf-8"?>
<!-- Generator: Adobe Illustrator 19.0.0, SVG Export Plug-In . SVG Version: 6.00 Build 0)  -->
<svg version="1.1" id="Capa_1" xmlns="http://www.w3.org/2000/svg" xmlns:xlink="http://www.w3.org/1999/xlink" x="0px" y="0px"
	 viewBox="-67 149 64 64" style="enable-background:new -67 149 64 64;" xml:space="preserve">
<style type="text/css">
	.st0{fill:#D5AF88;}
</style>
<g>
	<path class="st0" d="M-11,171h-48c-0.6,0-1,0.4-1,1v23c0,0.6,0.4,1,1,1h6l1.1-11h32.7l1.1,11h7c0.6,0,1-0.4,1-1v-23
		C-10,171.4-10.4,171-11,171z M-17.3,179.5c-1.1,0-2-0.9-2-2s0.9-2,2-2s2,0.9,2,2S-16.2,179.5-17.3,179.5z"/>
	<polygon class="st0" points="-21.1,196 -21.9,188 -49.1,188 -49.9,196 -50.8,205 -20.2,205 	"/>
	<rect x="-49" y="159" class="st0" width="27" height="10"/>
</g>
</svg>
