<?xml version="1.0" encoding="utf-8"?>
<!-- Generator: Adobe Illustrator 19.0.0, SVG Export Plug-In . SVG Version: 6.00 Build 0)  -->
<svg version="1.1" id="Capa_1" xmlns="http://www.w3.org/2000/svg" xmlns:xlink="http://www.w3.org/1999/xlink" x="0px" y="0px"
	 viewBox="-23 103 152 155" style="enable-background:new -23 103 152 155;" xml:space="preserve">
<style type="text/css">
	.st0{fill:none;}
	.st1{fill:#796C5C;}
	.st2{fill:#E45D3C;}
</style>
<g>
	<path class="st0" d="M52.9,245.5c-3.2,0-6-1.2-8.3-3.5s-3.5-5.1-3.5-8.3c0-0.9-0.4-1.3-1.3-1.3s-1.3,0.4-1.3,1.3
		c0,4,1.4,7.3,4.2,10.1c2.8,2.8,6.2,4.2,10.1,4.2c0.9,0,1.3-0.4,1.3-1.3C54.2,245.9,53.8,245.5,52.9,245.5z"/>
	<path class="st1" d="M97.3,190.9c-4.9-11.9-7.5-24.5-7.9-37.6c-13.4-0.7-24-11.8-24-25.3c0-2.6,0.4-5,1.1-7.3
		c-2-0.5-4.2-0.9-6.4-1.2c0.4-1,0.7-2,0.7-3c0-2.2-0.8-4-2.3-5.5s-3.4-2.3-5.5-2.3c-2.2,0-4,0.8-5.5,2.3s-2.3,3.4-2.3,5.5
		c0,1,0.2,2,0.7,3c-9.1,1.1-16.3,4.3-21.5,9.5c-5.2,5.3-7.8,12.4-7.8,21.3c0,14.2-2.6,27.8-7.9,40.6s-13.1,23.6-23.4,32.4
		c0,2.8,1,5.3,3.1,7.3c2.1,2.1,4.5,3.1,7.3,3.1h36.5c0,5.8,2,10.7,6.1,14.7c4.1,4.1,9,6.1,14.7,6.1c5.8,0,10.7-2,14.7-6.1
		c4.1-4.1,6.1-9,6.1-14.7h36.5c2.8,0,5.3-1,7.3-3.1c2.1-2.1,3.1-4.5,3.1-7.3C110.4,214.6,102.6,203.8,97.3,190.9z M52.9,248.1
		c-4,0-7.3-1.4-10.1-4.2c-2.8-2.8-4.2-6.2-4.2-10.1c0-0.9,0.4-1.3,1.3-1.3s1.3,0.4,1.3,1.3c0,3.2,1.2,6,3.5,8.3s5.1,3.5,8.3,3.5
		c0.9,0,1.3,0.4,1.3,1.3C54.2,247.6,53.8,248.1,52.9,248.1z"/>
</g>
<circle class="st2" cx="93.1" cy="125.9" r="19.9"/>
</svg>
