<?xml version="1.0" encoding="utf-8"?>
<!-- Generator: Adobe Illustrator 19.0.0, SVG Export Plug-In . SVG Version: 6.00 Build 0)  -->
<svg version="1.1" id="图层_1" xmlns:sketch="http://www.bohemiancoding.com/sketch/ns"
	 xmlns="http://www.w3.org/2000/svg" xmlns:xlink="http://www.w3.org/1999/xlink" x="0px" y="0px" viewBox="-84 161.2 35.2 34.8"
	 style="enable-background:new -84 161.2 35.2 34.8;" xml:space="preserve">
<style type="text/css">
	.st0{fill:#EA826E;}
	.st1{fill:none;}
	.st2{fill:#D5AF88;}
</style>
<title>bell</title>
<desc>Created with Sketch Beta.</desc>
<circle class="st0" cx="-54.6" cy="170.2" r="4.5"/>
<g>
	<path class="st1" d="M-82.3,178.9c0,3.9,2.3,7.4,5.7,9.4l-0.1,4.5l4.5-2.7c1,0.2,2.1,0.4,3.2,0.4c7.4,0,13.5-5.2,13.5-11.5
		c0-0.9-0.1-1.8-0.4-2.7c-2.8-0.5-5-3-5-6c0-0.2,0-0.3,0-0.5c-2.3-1.5-5.1-2.4-8.1-2.4C-76.3,167.3-82.3,172.5-82.3,178.9z
		 M-64,183.7h-9.6c-0.5,0-1-0.4-1-1c0-0.5,0.4-1,1-1h9.6c0.5,0,1,0.4,1,1C-63.1,183.2-63.5,183.7-64,183.7z M-61.1,177
		c0,0.5-0.4,1-1,1h-13.5c-0.5,0-1-0.4-1-1c0-0.5,0.4-1,1-1h13.5C-61.6,176-61.1,176.4-61.1,177z"/>
	<path class="st2" d="M-55.8,176.2c0.2,0.9,0.4,1.8,0.4,2.7c0,6.4-6,11.5-13.5,11.5c-1.1,0-2.2-0.1-3.2-0.4l-4.5,2.7l0.1-4.5
		c-3.5-2.1-5.7-5.5-5.7-9.4c0-6.4,6-11.5,13.5-11.5c3.1,0,5.9,0.9,8.1,2.4c0.1-0.7,0.2-1.4,0.5-2c-2.5-1.5-5.4-2.3-8.6-2.3
		c-8.5,0-15.4,6-15.4,13.5c0,4.2,2.3,8,5.8,10.5v6.8l6.7-4.1c0.9,0.2,1.9,0.2,2.9,0.2c8.5,0,15.4-6,15.4-13.5c0-0.9-0.1-1.8-0.3-2.7
		c-0.3,0-0.6,0.1-0.9,0.1C-55,176.3-55.4,176.2-55.8,176.2z"/>
	<path class="st2" d="M-64,181.8h-9.6c-0.5,0-1,0.4-1,1c0,0.5,0.4,1,1,1h9.6c0.5,0,1-0.4,1-1C-63.1,182.2-63.5,181.8-64,181.8z"/>
	<path class="st2" d="M-76.5,177c0,0.5,0.4,1,1,1h13.5c0.5,0,1-0.4,1-1c0-0.5-0.4-1-1-1h-13.5C-76.1,176-76.5,176.4-76.5,177z"/>
</g>
</svg>
