<?xml version="1.0" encoding="utf-8"?>
<!-- Generator: Adobe Illustrator 19.0.0, SVG Export Plug-In . SVG Version: 6.00 Build 0)  -->
<svg version="1.1" id="图层_1" xmlns="http://www.w3.org/2000/svg" xmlns:xlink="http://www.w3.org/1999/xlink" x="0px" y="0px"
	 viewBox="-83 165 32 32" style="enable-background:new -83 165 32 32;" xml:space="preserve">
<style type="text/css">
	.st0{fill:#796C5C;}
</style>
<path class="st0" d="M-72.7,170.3l-3.3,3.3l-1.3-1.3l-1.4,1.4l2,2l0.7,0.7l0.7-0.7l4-4L-72.7,170.3z M-68,172v2h13v-2H-68z
	 M-72.7,178.3l-3.3,3.3l-1.3-1.3l-1.4,1.4l2,2l0.7,0.7l0.7-0.7l4-4L-72.7,178.3z M-68,180v2h13v-2H-68z M-72.7,186.3l-3.3,3.3
	l-1.3-1.3l-1.4,1.4l2,2l0.7,0.7l0.7-0.7l4-4L-72.7,186.3z M-68,188v2h13v-2H-68z"/>
</svg>
