<?xml version="1.0" encoding="utf-8"?>
<!-- Generator: Adobe Illustrator 19.0.0, SVG Export Plug-In . SVG Version: 6.00 Build 0)  -->
<svg version="1.1" id="Ebene_1" xmlns="http://www.w3.org/2000/svg" xmlns:xlink="http://www.w3.org/1999/xlink" x="0px" y="0px"
	 viewBox="-67 149 64 64" style="enable-background:new -67 149 64 64;" xml:space="preserve">
<style type="text/css">
	.st0{fill:#796C5C;}
</style>
<g>
	<path class="st0" d="M-66.4,190.4l5.3,5.3c0.8,0.8,2,0.8,2.8,0c1.1-1.1,2.6-1.8,4.2-1.8c3.3,0,6,2.7,6,6c0,1.6-0.6,3.1-1.8,4.2
		c-0.4,0.4-0.6,0.9-0.6,1.4c0,0.5,0.2,1,0.6,1.4l5.3,5.3c0.4,0.4,0.9,0.6,1.4,0.6s1-0.2,1.4-0.6l38-38C-3.2,174-3,173.5-3,173
		s-0.2-1-0.6-1.4l-5.3-5.3c-0.8-0.8-2-0.8-2.8,0c-1.1,1.1-2.6,1.8-4.2,1.8c-3.3,0-6-2.7-6-6c0-1.6,0.6-3.1,1.8-4.2
		c0.4-0.4,0.6-0.9,0.6-1.4s-0.2-1-0.6-1.4l-5.3-5.3c-0.8-0.8-2-0.8-2.8,0l-38,38c-0.4,0.4-0.6,0.9-0.6,1.4S-66.8,190-66.4,190.4z
		 M-41,167.8l1.6,1.6c0.4,0.4,0.9,0.6,1.4,0.6s1-0.2,1.4-0.6c0.8-0.8,0.8-2,0-2.8l-1.6-1.6l11.2-11.2l2.7,2.7
		c-1.1,1.6-1.7,3.5-1.7,5.5c0,5.5,4.5,10,10,10c2,0,3.9-0.6,5.5-1.7l2.7,2.7L-19,184.2l-1.6-1.6c-0.8-0.8-2-0.8-2.8,0
		c-0.8,0.8-0.8,2,0,2.8l1.6,1.6L-43,208.2l-2.7-2.7c1.1-1.6,1.7-3.5,1.7-5.5c0-5.5-4.5-10-10-10c-2,0-3.9,0.6-5.5,1.7l-2.7-2.7
		L-41,167.8z"/>
	<path class="st0" d="M-33.4,175.4c0.4,0.4,0.9,0.6,1.4,0.6s1-0.2,1.4-0.6c0.8-0.8,0.8-2,0-2.8l-2-2c-0.8-0.8-2-0.8-2.8,0
		c-0.8,0.8-0.8,2,0,2.8L-33.4,175.4z"/>
	<path class="st0" d="M-29.4,179.4l2,2c0.4,0.4,0.9,0.6,1.4,0.6s1-0.2,1.4-0.6c0.8-0.8,0.8-2,0-2.8l-2-2c-0.8-0.8-2-0.8-2.8,0
		C-30.2,177.4-30.2,178.6-29.4,179.4z"/>
</g>
</svg>
