<?xml version="1.0" encoding="utf-8"?>
<!-- Generator: Adobe Illustrator 19.0.0, SVG Export Plug-In . SVG Version: 6.00 Build 0)  -->
<svg version="1.1" id="Capa_1" xmlns="http://www.w3.org/2000/svg" xmlns:xlink="http://www.w3.org/1999/xlink" x="0px" y="0px"
	 viewBox="39 99 152 155" style="enable-background:new 39 99 152 155;" xml:space="preserve">
<style type="text/css">
	.st0{fill:#796C5C;}
</style>
<path class="st0" d="M160.4,190.3c-5.3-12.8-7.9-26.4-7.9-40.6c0-9-2.6-16.1-7.8-21.3c-5.2-5.3-12.4-8.4-21.5-9.5c0.4-1,0.7-2,0.7-3
	c0-2.2-0.8-4-2.3-5.5c-1.5-1.5-3.4-2.3-5.5-2.3c-2.2,0-4,0.8-5.5,2.3c-1.5,1.5-2.3,3.4-2.3,5.5c0,1,0.2,2,0.7,3
	c-9.1,1.1-16.3,4.3-21.5,9.5c-5.2,5.3-7.8,12.4-7.8,21.3c0,14.2-2.6,27.8-7.9,40.6c-5.3,12.8-13.1,23.6-23.4,32.4
	c0,2.8,1,5.3,3.1,7.3c2.1,2.1,4.5,3.1,7.3,3.1h36.5c0,5.8,2,10.7,6.1,14.7s9,6.1,14.7,6.1c5.8,0,10.7-2,14.7-6.1
	c4.1-4.1,6.1-9,6.1-14.7h36.5c2.8,0,5.3-1,7.3-3.1c2.1-2.1,3.1-4.5,3.1-7.3C173.5,214,165.7,203.2,160.4,190.3z M116,247.5
	c-4,0-7.3-1.4-10.1-4.2c-2.8-2.8-4.2-6.2-4.2-10.1c0-0.9,0.4-1.3,1.3-1.3s1.3,0.4,1.3,1.3c0,3.2,1.2,6,3.5,8.3
	c2.3,2.3,5.1,3.5,8.3,3.5c0.9,0,1.3,0.4,1.3,1.3C117.3,247,116.9,247.5,116,247.5z"/>
</svg>
