<?xml version="1.0" encoding="UTF-8" standalone="no"?>
<svg width="28px" height="28px" viewBox="0 0 28 28" version="1.1" xmlns="http://www.w3.org/2000/svg">
    <g id="Page-1" stroke="none" stroke-width="1" fill="none" fill-rule="evenodd">
        <g id="搜索首页" transform="translate(-13.000000, -553.000000)">
            <g id="Group" transform="translate(0.000000, 542.000000)">
                <rect id="Rectangle-1405" fill="#F8ECDD" x="0" y="0" width="375" height="50"/>
                <path d="M24.189781,22.189781 L13,22.189781 L13,27.810219 L24.189781,27.810219 L24.189781,39 L29.810219,39 L29.810219,27.810219 L41,27.810219 L41,22.189781 L29.810219,22.189781 L29.810219,11 L24.189781,11 L24.189781,22.189781 Z M13,11.1532847 L20.3576642,11.1532847 L20.3576642,18.4087591 L13,18.4087591 L13,11.1532847 Z M33.6423358,11.1532847 L41,11.1532847 L41,18.4087591 L33.6423358,18.4087591 L33.6423358,11.1532847 Z M33.6423358,31.6934307 L41,31.6934307 L41,38.9489051 L33.6423358,38.9489051 L33.6423358,31.6934307 Z M13,31.6934307 L20.3576642,31.6934307 L20.3576642,38.9489051 L13,38.9489051 L13,31.6934307 Z"
                      id="Combined-Shape" fill="#928370"/>
            </g>
        </g>
    </g>
</svg>