<?xml version="1.0" encoding="utf-8"?>
<!-- Generator: Adobe Illustrator 19.0.0, SVG Export Plug-In . SVG Version: 6.00 Build 0)  -->
<svg version="1.1" id="图层_1" xmlns="http://www.w3.org/2000/svg" xmlns:xlink="http://www.w3.org/1999/xlink" x="0px" y="0px"
	 viewBox="-517 284 44 44" style="enable-background:new -517 284 44 44;" xml:space="preserve">
<style type="text/css">
	.st0{fill:#6BBD7C;}
</style>
<title>Group 16</title>
<desc>Created with Sketch.</desc>
<g id="Page-1">
	<g id="自己的个人中心-我的订单-已完成订单退款-完成" transform="translate(-1004.000000, -414.000000)">
		<g id="Group-2" transform="translate(978.000000, 414.000000)">
			<g id="Group-4" transform="translate(26.000000, 0.000000)">
				<g id="Group-16">
					<path id="accept" class="st0" d="M-495,328c-12.1,0-22-9.8-22-22c0-12.1,9.8-22,22-22c12.1,0,22,9.8,22,22
						C-473.1,318.2-482.9,328-495,328L-495,328z M-495,286.1c-11,0-20,8.9-20,20s8.9,20,20,20s20-8.9,20-20S-484,286.1-495,286.1
						L-495,286.1z"/>
					<g id="Group" transform="translate(12.853933, 11.865169)">
						<path id="Combined-Shape" class="st0" d="M-510.2,300.8l-4.7-4.7c-0.4-0.4-1-0.4-1.4,0c-0.4,0.4-0.4,1,0,1.4l5.7,5.7
							c0.4,0.4,1,0.4,1.4,0c0.1-0.1,0.2-0.2,0.2-0.4c0,0,0.1-0.1,0.1-0.1l9.1-16.5c0.3-0.5,0.1-1.1-0.4-1.4
							c-0.5-0.3-1.1-0.1-1.4,0.4L-510.2,300.8z"/>
					</g>
				</g>
			</g>
		</g>
	</g>
</g>
</svg>
