<?xml version="1.0" encoding="utf-8"?>
<!-- Generator: Adobe Illustrator 19.0.0, SVG Export Plug-In . SVG Version: 6.00 Build 0)  -->
<svg version="1.1" id="图层_1" xmlns="http://www.w3.org/2000/svg" xmlns:xlink="http://www.w3.org/1999/xlink" x="0px" y="0px"
	 viewBox="156 -76 512 512" style="enable-background:new 156 -76 512 512;" xml:space="preserve">
<style type="text/css">
	.st0{fill:#BF854F;}
</style>
<path class="st0" d="M316.5,436c-34.1-71-16-111.7,10.3-150c28.7-42,36.1-83.5,36.1-83.5s22.6,29.4,13.5,75.3
	c39.9-44.4,47.4-115.1,41.4-142.2c90.2,63,128.7,199.4,76.8,300.5c276.2-156.3,68.7-390.1,32.6-416.4c12,26.3,14.3,70.9-10,92.6
	C476-44,374.2-76,374.2-76c12,80.5-43.6,168.6-97.3,234.4c-1.9-32.1-3.9-54.3-20.8-85c-3.8,58.3-48.4,105.9-60.4,164.3
	C179.3,316.8,207.9,374.8,316.5,436z"/>
</svg>
