<?xml version="1.0" encoding="utf-8"?>
<!-- Generator: Adobe Illustrator 19.0.0, SVG Export Plug-In . SVG Version: 6.00 Build 0)  -->
<svg version="1.1" id="图层_1" xmlns="http://www.w3.org/2000/svg" xmlns:xlink="http://www.w3.org/1999/xlink" x="0px" y="0px"
	 viewBox="-532 298 14 16" style="enable-background:new -532 298 14 16;" xml:space="preserve">
<style type="text/css">
	.st0{fill:#BBB7B3;}
</style>
<title>Page 1</title>
<desc>Created with Sketch.</desc>
<g id="Page-1_1_">
	<g id="自己的个人中心-我的订单-可打印" transform="translate(-990.000000, -357.000000)">
		<g id="Group-15" transform="translate(990.000000, 357.000000)">
			<path id="Page-1" class="st0" d="M-521.9,309.3v-3.1h-3.1v-2.3l-3.9,3.9l3.9,3.9v-2.3H-521.9z M-525,300c-0.2,0-0.4,0.1-0.5,0.2
				s-0.2,0.3-0.2,0.5s0.1,0.4,0.2,0.6s0.3,0.2,0.5,0.2s0.4-0.1,0.5-0.2s0.2-0.3,0.2-0.6s-0.1-0.4-0.2-0.5S-524.8,300-525,300
				L-525,300z M-519.6,300c0.4,0,0.8,0.2,1.1,0.5c0.3,0.3,0.5,0.7,0.5,1.1v10.9c0,0.4-0.2,0.8-0.5,1.1c-0.3,0.3-0.7,0.5-1.1,0.5
				h-10.9c-0.4,0-0.8-0.2-1.1-0.5c-0.3-0.3-0.5-0.7-0.5-1.1v-10.9c0-0.4,0.2-0.8,0.5-1.1c0.3-0.3,0.7-0.5,1.1-0.5h3.2
				c0.2-0.5,0.4-0.8,0.8-1.1c0.4-0.3,0.8-0.4,1.3-0.4s1,0.1,1.3,0.4c0.4,0.3,0.7,0.7,0.8,1.1H-519.6z"/>
		</g>
	</g>
</g>
</svg>
