<?xml version="1.0" encoding="utf-8"?>
<!-- Generator: Adobe Illustrator 19.0.0, SVG Export Plug-In . SVG Version: 6.00 Build 0)  -->
<svg version="1.1" id="图层_1" xmlns="http://www.w3.org/2000/svg" xmlns:xlink="http://www.w3.org/1999/xlink" x="0px" y="0px"
	 viewBox="0 0 56.5 56.5" style="enable-background:new 0 0 56.5 56.5;" xml:space="preserve">
<style type="text/css">
	.st0{fill-rule:evenodd;clip-rule:evenodd;fill:#FFFFFF;}
	.st1{clip-path:url(#XMLID_134_);fill-rule:evenodd;clip-rule:evenodd;fill:#FFFFFF;}
	.st2{clip-path:url(#XMLID_135_);}
	.st3{clip-path:url(#XMLID_136_);fill:#6EA8DF;}
	.st4{fill:#FFFFFF;}
</style>
<g>
	<circle class="st0" cx="-158" cy="28" r="28"/>
</g>
<g id="XMLID_142_">
	<circle id="XMLID_144_" class="st0" cx="-157.5" cy="28.5" r="28"/>
</g>
<g id="XMLID_170_">
	<defs>
		<rect id="XMLID_171_" x="-4.3" y="-3" width="65" height="63"/>
	</defs>
	<clipPath id="XMLID_134_">
		<use xlink:href="#XMLID_171_"  style="overflow:visible;"/>
	</clipPath>
	<circle id="XMLID_172_" class="st1" cx="-157.3" cy="29" r="28"/>
</g>
<g id="XMLID_138_">
	<defs>
		<circle id="XMLID_139_" cx="28.2" cy="28.2" r="28"/>
	</defs>
	<clipPath id="XMLID_135_">
		<use xlink:href="#XMLID_139_"  style="overflow:visible;"/>
	</clipPath>
	<g id="XMLID_140_" class="st2">
		<defs>
			<rect id="XMLID_141_" x="-4.8" y="-3.8" width="65" height="63"/>
		</defs>
		<clipPath id="XMLID_136_">
			<use xlink:href="#XMLID_141_"  style="overflow:visible;"/>
		</clipPath>
		<rect id="XMLID_143_" x="-4.3" y="-5.4" class="st3" width="66" height="66"/>
	</g>
</g>
<path id="XMLID_133_" class="st4" d="M42.7,32.7c-0.6-3.7-3.4-6.1-3.4-6.1c0.4-3.3-1-3.9-1-3.9c-0.3-10.3-9.4-10.1-9.6-10.1
	c-0.2,0-9.3-0.2-9.6,10.1c0,0-1.4,0.6-1,3.9c0,0-2.7,2.4-3.4,6.1c0,0-0.3,6.2,3.1,0.8c0,0,0.8,2.1,2.2,3.9c0,0-2.5,0.8-2.3,3
	c0,0-0.1,2.4,5.4,2.3c0,0,3.9-0.3,5.1-1.9h0.5h0h0.5c1.2,1.6,5.1,1.9,5.1,1.9c5.5,0.2,5.4-2.3,5.4-2.3c0.2-2.2-2.3-3-2.3-3
	c1.4-1.8,2.2-3.9,2.2-3.9C43.1,38.8,42.7,32.7,42.7,32.7z"/>
</svg>
