<?xml version="1.0" encoding="utf-8"?>
<!-- Generator: Adobe Illustrator 19.0.0, SVG Export Plug-In . SVG Version: 6.00 Build 0)  -->
<svg version="1.1" id="图层_1" xmlns:sketch="http://www.bohemiancoding.com/sketch/ns"
	 xmlns="http://www.w3.org/2000/svg" xmlns:xlink="http://www.w3.org/1999/xlink" x="0px" y="0px" viewBox="-954 535 11 11"
	 style="enable-background:new -954 535 11 11;" xml:space="preserve">
<style type="text/css">
	.st0{fill:#A1978B;}
	.st1{fill:#E2C6AC;}
</style>
<title>时间图标</title>
<desc>Created with Sketch.</desc>
<g id="Page-1" sketch:type="MSPage">
	<g id="时间图标" sketch:type="MSArtboardGroup">
		<g id="Clock-Copy-4" sketch:type="MSLayerGroup">
			<g id="Layer_1" sketch:type="MSShapeGroup">
				<path id="Shape" class="st0" d="M-948.5,535c-3,0-5.5,2.5-5.5,5.5s2.5,5.5,5.5,5.5s5.5-2.5,5.5-5.5S-945.5,535-948.5,535
					L-948.5,535z M-948.5,544.9c-2.4,0-4.4-2-4.4-4.4s2-4.4,4.4-4.4s4.4,2,4.4,4.4S-946.1,544.9-948.5,544.9L-948.5,544.9z"/>
				<path id="Shape_1_" class="st1" d="M-946.1,542l-1.7-1.7v-1.8c0-0.4-0.3-0.7-0.7-0.7s-0.7,0.3-0.7,0.7v2.3l2.1,2.1
					c0.3,0.3,0.7,0.3,1,0C-945.8,542.7-945.8,542.2-946.1,542L-946.1,542z"/>
			</g>
		</g>
	</g>
</g>
</svg>
