<?xml version="1.0" encoding="utf-8"?>
<!-- Generator: Adobe Illustrator 19.0.0, SVG Export Plug-In . SVG Version: 6.00 Build 0)  -->
<svg version="1.1" id="图层_1" xmlns="http://www.w3.org/2000/svg" xmlns:xlink="http://www.w3.org/1999/xlink" x="0px" y="0px"
	 viewBox="0 0 56 56" style="enable-background:new 0 0 56 56;" xml:space="preserve">
<style type="text/css">
	.st0{clip-path:url(#SVGID_2_);fill-rule:evenodd;clip-rule:evenodd;fill:#FFFFFF;}
	.st1{clip-path:url(#SVGID_4_);}
	.st2{clip-path:url(#SVGID_6_);fill:#42B655;}
	.st3{clip-path:url(#SVGID_8_);}
	.st4{clip-path:url(#SVGID_10_);fill:#FFFFFF;}
</style>
<g>
	<defs>
		<rect id="SVGID_1_" x="-3" y="-2" width="65" height="63"/>
	</defs>
	<clipPath id="SVGID_2_">
		<use xlink:href="#SVGID_1_"  style="overflow:visible;"/>
	</clipPath>
	<circle class="st0" cx="-158" cy="28" r="28"/>
</g>
<g>
	<defs>
		<circle id="SVGID_3_" cx="28" cy="28" r="28"/>
	</defs>
	<clipPath id="SVGID_4_">
		<use xlink:href="#SVGID_3_"  style="overflow:visible;"/>
	</clipPath>
	<g class="st1">
		<defs>
			<rect id="SVGID_5_" x="-3" y="-2" width="65" height="63"/>
		</defs>
		<clipPath id="SVGID_6_">
			<use xlink:href="#SVGID_5_"  style="overflow:visible;"/>
		</clipPath>
		<rect x="-5" y="-5" class="st2" width="66" height="66"/>
	</g>
</g>
<g>
	<defs>
		<path id="SVGID_7_" d="M39.1,28.8c0.7,0.7,0.6,1.8-0.2,2.3c-1.2,0.6-2.5-0.6-1.9-1.9C37.4,28.4,38.5,28.2,39.1,28.8z M32.1,28.7
			c0.4,0.3,0.7,1.1,0.5,1.6c-0.4,1.2-2.1,1.3-2.5,0.1C29.6,29.1,31,27.9,32.1,28.7z M32.3,23.9c-5,0.9-8.4,4.8-8.2,9.3
			c0.3,6,7.1,10.1,13.6,8.3l0.8-0.2l1.6,0.9c0.9,0.5,1.6,0.9,1.7,0.8c0-0.1-0.2-0.7-0.4-1.4c-0.5-1.7-0.5-1.5,0.2-2.1
			C49.4,33.7,42.5,22,32.3,23.9z M28.5,19.5c1.7,1.2,0.4,4-1.5,3.2c-1.4-0.6-1.6-2.6-0.3-3.3C27.2,19.1,28,19.1,28.5,19.5z M20,19.5
			c1.1,0.7,1.1,2.3,0.1,3c-1.7,1.1-3.6-0.8-2.5-2.5C18.1,19.2,19.2,19,20,19.5z M20.8,14.2c-10,1.8-13.4,13.5-5.4,18.9
			c0.4,0.3,0.4,0.3-0.2,2.3l-0.6,1.7l2-1.1l2-1.1l1.1,0.3c1.1,0.3,2.6,0.5,3.5,0.5h0.6l-0.2-0.8c-1.6-6,3.9-11.9,10.9-11.9h1
			l-0.2-0.7C33.8,16.7,27.2,13,20.8,14.2z"/>
	</defs>
	<clipPath id="SVGID_8_">
		<use xlink:href="#SVGID_7_"  style="overflow:visible;"/>
	</clipPath>
	<g class="st3">
		<defs>
			<rect id="SVGID_9_" x="-3" y="-2" width="65" height="63"/>
		</defs>
		<clipPath id="SVGID_10_">
			<use xlink:href="#SVGID_9_"  style="overflow:visible;"/>
		</clipPath>
		<rect x="6" y="9" class="st4" width="43.9" height="39"/>
	</g>
</g>
</svg>
