<?xml version="1.0" encoding="utf-8"?>
<!-- Generator: Adobe Illustrator 19.0.0, SVG Export Plug-In . SVG Version: 6.00 Build 0)  -->
<svg version="1.1" id="图层_1" xmlns="http://www.w3.org/2000/svg" xmlns:xlink="http://www.w3.org/1999/xlink" x="0px" y="0px"
	 viewBox="0 0 56.5 56.5" style="enable-background:new 0 0 56.5 56.5;" xml:space="preserve">
<style type="text/css">
	.st0{clip-path:url(#SVGID_2_);fill-rule:evenodd;clip-rule:evenodd;fill:#FFFFFF;}
	.st1{clip-path:url(#XMLID_173_);fill-rule:evenodd;clip-rule:evenodd;fill:#FFFFFF;}
	.st2{clip-path:url(#XMLID_174_);}
	.st3{clip-path:url(#XMLID_175_);fill:#EA716E;}
	.st4{fill:#FFFFFF;}
</style>
<g>
	<defs>
		<rect id="SVGID_1_" x="-3" y="-2" width="65" height="63"/>
	</defs>
	<clipPath id="SVGID_2_">
		<use xlink:href="#SVGID_1_"  style="overflow:visible;"/>
	</clipPath>
	<circle class="st0" cx="-158" cy="28" r="28"/>
</g>
<g id="XMLID_142_">
	<defs>
		<rect id="XMLID_143_" x="-4.5" y="-3.5" width="65" height="63"/>
	</defs>
	<clipPath id="XMLID_173_">
		<use xlink:href="#XMLID_143_"  style="overflow:visible;"/>
	</clipPath>
	<circle id="XMLID_144_" class="st1" cx="-157.5" cy="28.5" r="28"/>
</g>
<g id="XMLID_137_">
	<defs>
		<circle id="XMLID_138_" cx="28.5" cy="28.5" r="28"/>
	</defs>
	<clipPath id="XMLID_174_">
		<use xlink:href="#XMLID_138_"  style="overflow:visible;"/>
	</clipPath>
	<g id="XMLID_139_" class="st2">
		<defs>
			<rect id="XMLID_140_" x="-4.5" y="-3.5" width="65" height="63"/>
		</defs>
		<clipPath id="XMLID_175_">
			<use xlink:href="#XMLID_140_"  style="overflow:visible;"/>
		</clipPath>
		<rect id="XMLID_141_" x="-3.5" y="-5.2" class="st3" width="66" height="66"/>
	</g>
</g>
<path id="XMLID_172_" class="st4" d="M35,14.8c-1,0.4-1.3,1.5-0.5,2.3c0.4,0.4,0.7,0.4,2.2,0.4c2.1,0,3.5,0.6,4.5,1.8
	c1.3,1.5,1.4,1.9,1.4,4.6c0,2.4,0,2.4,0.6,2.7c1.3,0.7,2.1-0.2,2.4-2.6c0.4-3.1-1.5-6.7-4.3-8.4C39.6,14.7,36.5,14.2,35,14.8
	L35,14.8z M24.6,18.8c-2.4,0.9-4.7,2.5-7.1,5.1c-5.8,6.2-5.5,12.1,1,15.3c6.7,3.3,15.7,2.2,20.6-2.5c3.7-3.5,3.2-7.9-1-9.4
	c-0.7-0.3-1-0.4-0.9-0.7c0.4-0.9,0.5-2,0.3-2.7c-0.7-2-3.1-2.5-6.6-1.3l-1.4,0.5l0.1-1.4c0.1-1.7-0.2-2.6-1.2-3.1
	C27.5,18.3,25.9,18.3,24.6,18.8L24.6,18.8z M30.5,27c3.2,0.9,5.1,2.8,5.1,5.1c0,2.5-2.3,4.8-5.9,6c-2,0.6-5.6,0.8-7.4,0.3
	c-3.4-1-5.3-2.8-5.3-5.2c0-1.3,0.6-2.5,1.8-3.6c1.2-1.1,2.1-1.6,3.8-2.2C25.2,26.4,28,26.3,30.5,27L30.5,27z M23.8,29.1
	c-2.1,1-3.3,2.5-3.3,4.4c0,1.7,0.8,2.9,2.4,3.8c1.3,0.7,3.7,0.6,5.1-0.1c1.8-1,3.1-2.8,3.1-4.5c0-1.4-1.3-3.2-2.8-3.8
	C27.1,28.4,25.1,28.5,23.8,29.1L23.8,29.1z M25.3,33.1c0.1,0.1,0.3,0.5,0.3,0.8c0,1.1-1.8,1.9-2.5,1.2c-0.4-0.4-0.3-1.4,0.2-1.9
	C23.7,32.8,24.9,32.7,25.3,33.1L25.3,33.1z M35.4,19.2c-1,1-0.3,2.1,1.2,2.1c1.3,0,1.9,0.7,1.9,2.2c0,1,0.1,1.2,0.5,1.5
	c1.1,0.8,2.1-0.1,2.1-2c0-2.3-1.7-4.1-4-4.2C36,18.8,35.8,18.8,35.4,19.2L35.4,19.2z"/>
</svg>
