<?xml version="1.0" encoding="utf-8"?>
<!-- Generator: Adobe Illustrator 19.0.0, SVG Export Plug-In . SVG Version: 6.00 Build 0)  -->
<svg version="1.1" id="图层_1" xmlns:sketch="http://www.bohemiancoding.com/sketch/ns"
	 xmlns="http://www.w3.org/2000/svg" xmlns:xlink="http://www.w3.org/1999/xlink" x="0px" y="0px" viewBox="-944 533 31 16"
	 style="enable-background:new -944 533 31 16;" xml:space="preserve">
<style type="text/css">
	.st0{fill:#3C3A59;stroke:#46CEF7;stroke-width:1.5;}
	.st1{fill:#3ED4F8;}
	.st2{font-family:'ChalkboardSE-Light';}
	.st3{font-size:8.0497px;}
</style>
<title>Rectangle 140 Copy + DOC + DOC + Triangle 13 Copy Copy Copy Copy</title>
<desc>Created with Sketch.</desc>
<g id="Page-1" sketch:type="MSPage">
	<g id="资料类型图标集合" transform="translate(-9.000000, -143.000000)" sketch:type="MSArtboardGroup">
		
			<g id="Rectangle-140-Copy-_x2B_-DOC-_x2B_-DOC-_x2B_-Triangle-13-Copy-Copy-Copy-Copy" transform="translate(9.000000, 143.000000)" sketch:type="MSLayerGroup">
			<g id="Rectangle-140-Copy-_x2B_-DOC" transform="translate(0.000000, 0.918919)" sketch:type="MSShapeGroup">
				<path id="Rectangle-140-Copy" class="st0" d="M-943.2,535.1c0-1,0.8-1.9,1.9-1.9h21.7c0,0,5.8,5.1,5.8,5.2v6.9
					c0,1-0.8,1.9-1.9,1.9h-25.6c-1,0-1.9-0.9-1.9-1.9V535.1z"/>
			</g>
			<text transform="matrix(1 0 0 1 -937.8314 543.6016)" class="st1 st2 st3">PSD</text>
			<path id="Triangle-13" sketch:type="MSShapeGroup" class="st1" d="M-919.5,540.3c-0.6,0-1.2-0.5-1.2-1.1l0-2.2l3.9,3.3
				L-919.5,540.3L-919.5,540.3z"/>
		</g>
	</g>
</g>
</svg>
