<?xml version="1.0" encoding="utf-8"?>
<!-- Generator: Adobe Illustrator 19.0.0, SVG Export Plug-In . SVG Version: 6.00 Build 0)  -->
<svg version="1.1" id="图层_1" xmlns:sketch="http://www.bohemiancoding.com/sketch/ns"
	 xmlns="http://www.w3.org/2000/svg" xmlns:xlink="http://www.w3.org/1999/xlink" x="0px" y="0px" viewBox="-944 533 31 16"
	 style="enable-background:new -944 533 31 16;" xml:space="preserve">
<style type="text/css">
	.st0{fill:#A64166;}
	.st1{fill:#F7E0E8;}
	.st2{font-family:'ChalkboardSE-Light';}
	.st3{font-size:9px;}
	.st4{fill:#90284E;}
</style>
<title>Rectangle 140 Copy + DOC + DOC + Triangle 13</title>
<desc>Created with Sketch.</desc>
<g id="Page-1" sketch:type="MSPage">
	<g id="资料类型图标集合" transform="translate(-7.000000, -63.000000)" sketch:type="MSArtboardGroup">
		
			<g id="Rectangle-140-Copy-_x2B_-DOC-_x2B_-DOC-_x2B_-Triangle-13" transform="translate(7.000000, 63.000000)" sketch:type="MSLayerGroup">
			<g id="Rectangle-140-Copy-_x2B_-DOC" transform="translate(0.000000, 0.918919)" sketch:type="MSShapeGroup">
				<path id="Rectangle-140-Copy" class="st0" d="M-944,535.1c0-1.1,0.9-2,2-2h22.9c0,0,6.1,5.4,6.1,5.5v7.3c0,1.1-0.9,2-2,2h-27
					c-1.1,0-2-0.9-2-2V535.1z"/>
			</g>
			<text transform="matrix(1 0 0 1 -938.7568 544)" class="st1 st2 st3">ZIP</text>
			<path id="Triangle-13" sketch:type="MSShapeGroup" class="st4" d="M-918,539.5c-0.7,0-1.2-0.5-1.2-1.2l0-2.3l4.1,3.5L-918,539.5
				L-918,539.5z"/>
		</g>
	</g>
</g>
</svg>
